<?xml version="1.0" standalone="no"?>
<!DOCTYPE svg PUBLIC "-//W3C//DTD SVG 20010904//EN"
 "http://www.w3.org/TR/2001/REC-SVG-20010904/DTD/svg10.dtd">
<svg version="1.0" xmlns="http://www.w3.org/2000/svg"
 width="256.000000pt" height="256.000000pt" viewBox="0 0 256.000000 256.000000"
 preserveAspectRatio="xMidYMid meet">
<metadata>
Created by potrace 1.14, written by Peter Selinger 2001-2017
</metadata>
<g transform="translate(0.000000,256.000000) scale(0.100000,-0.100000)"
fill="#000000" stroke="none">
<path d="M110 1295 l0 -715 40 -1 c49 -2 52 -2 69 -13 10 -6 12 -5 7 2 -5 9
10 12 55 12 47 0 65 -4 75 -17 12 -15 13 -15 8 -2 -4 12 1 16 18 15 13 0 26
-5 30 -11 5 -6 8 -6 8 2 0 13 18 12 39 -1 9 -6 12 -5 8 1 -4 7 17 11 58 12 63
1 71 -3 66 -32 -1 -5 3 -6 8 -2 6 3 8 11 5 18 -6 16 98 20 108 4 6 -9 8 -9 8
1 0 20 100 16 116 -6 12 -14 13 -14 8 -1 -4 12 1 16 18 15 13 0 26 -5 30 -11
5 -6 8 -6 8 2 0 13 18 12 39 -1 9 -6 12 -5 8 1 -4 7 17 11 58 12 63 1 71 -3
66 -32 -1 -5 3 -6 8 -2 6 3 8 11 5 18 -6 16 98 20 108 4 6 -9 8 -9 8 0 0 9 31
12 119 10 66 -1 114 -5 108 -9 -9 -6 -9 -8 0 -8 6 0 15 5 18 10 11 17 45 11
46 -7 0 -15 2 -15 7 -3 8 18 72 27 72 10 0 -6 -6 -8 -12 -4 -7 4 -9 3 -5 -1
12 -14 36 -14 31 -1 -3 8 21 12 86 12 51 1 85 -3 78 -7 -9 -6 -9 -9 -1 -9 6 0
15 5 18 10 11 17 45 11 46 -7 0 -15 2 -15 7 -3 8 18 72 27 72 10 0 -6 -6 -8
-12 -4 -7 4 -9 3 -5 -1 12 -14 36 -14 31 -1 -3 8 16 12 61 14 63 3 71 -1 66
-31 -1 -5 3 -6 8 -2 6 3 8 11 5 18 -6 16 98 20 108 4 6 -9 8 -9 8 1 0 20 100
16 116 -6 12 -14 13 -14 8 -1 -4 12 1 16 18 15 13 0 26 -5 30 -11 5 -6 8 -6 8
2 0 13 18 12 39 -1 10 -6 12 -5 7 2 -5 8 5 12 31 13 21 0 32 3 26 6 -17 6 -17
53 0 53 8 0 9 2 1 8 -14 8 -17 155 -3 146 5 -3 9 0 9 5 0 6 -4 11 -9 11 -5 0
-9 34 -9 75 0 42 4 72 9 69 5 -3 9 0 9 5 0 6 -4 11 -9 11 -5 0 -9 34 -9 75 0
42 4 72 9 69 5 -3 9 0 9 5 0 6 -4 11 -9 11 -5 0 -9 34 -9 75 0 42 4 72 9 69 5
-3 9 0 9 5 0 6 -4 11 -9 11 -5 0 -9 34 -9 75 0 42 4 72 9 69 5 -3 9 0 9 5 0 6
-4 11 -9 11 -5 0 -9 34 -9 75 0 42 4 72 9 69 5 -3 9 0 9 5 0 6 -4 11 -9 11 -5
0 -9 34 -9 75 0 42 4 72 9 69 5 -3 9 0 9 5 0 6 -4 11 -9 11 -5 0 -10 25 -10
55 0 54 5 63 25 48 5 -5 1 -1 -8 9 -21 19 -23 34 -6 41 10 4 10 6 1 6 -8 1
-13 16 -13 41 l0 40 -1160 0 -1160 0 0 -715z"/>
<path d="M255 560 c3 -5 8 -10 11 -10 2 0 4 5 4 10 0 6 -5 10 -11 10 -5 0 -7
-4 -4 -10z"/>
<path d="M290 562 c0 -5 7 -9 15 -9 8 0 12 4 9 9 -3 4 -9 8 -15 8 -5 0 -9 -4
-9 -8z"/>
<path d="M330 561 c0 -6 4 -13 10 -16 6 -3 7 1 4 9 -7 18 -14 21 -14 7z"/>
<path d="M530 558 c0 -6 3 -8 7 -5 3 4 13 1 22 -6 14 -11 14 -10 2 6 -15 20
-31 22 -31 5z"/>
<path d="M735 560 c3 -5 8 -10 11 -10 2 0 4 5 4 10 0 6 -5 10 -11 10 -5 0 -7
-4 -4 -10z"/>
<path d="M770 562 c0 -5 7 -9 15 -9 8 0 12 4 9 9 -3 4 -9 8 -15 8 -5 0 -9 -4
-9 -8z"/>
<path d="M810 561 c0 -6 4 -13 10 -16 6 -3 7 1 4 9 -7 18 -14 21 -14 7z"/>
<path d="M1010 558 c0 -6 3 -8 7 -5 3 4 13 1 22 -6 14 -11 14 -10 2 6 -15 20
-31 22 -31 5z"/>
<path d="M1215 560 c3 -5 8 -10 11 -10 2 0 4 5 4 10 0 6 -5 10 -11 10 -5 0 -7
-4 -4 -10z"/>
<path d="M1250 562 c0 -4 10 -9 22 -9 18 -2 20 0 8 7 -18 12 -30 13 -30 2z"/>
<path d="M1335 561 c-3 -5 0 -13 6 -17 8 -5 9 -3 4 6 -6 10 -4 12 9 7 10 -4
15 -3 11 3 -8 13 -22 13 -30 1z"/>
<path d="M1655 561 c-3 -5 0 -13 6 -17 8 -5 9 -3 4 6 -6 10 -4 12 9 7 10 -4
15 -3 11 3 -8 13 -22 13 -30 1z"/>
<path d="M1970 558 c0 -6 3 -8 7 -5 3 4 13 1 22 -6 14 -11 14 -10 2 6 -15 20
-31 22 -31 5z"/>
<path d="M2175 560 c3 -5 8 -10 11 -10 2 0 4 5 4 10 0 6 -5 10 -11 10 -5 0 -7
-4 -4 -10z"/>
<path d="M2210 562 c0 -5 7 -9 15 -9 8 0 12 4 9 9 -3 4 -9 8 -15 8 -5 0 -9 -4
-9 -8z"/>
<path d="M2250 561 c0 -6 4 -13 10 -16 6 -3 7 1 4 9 -7 18 -14 21 -14 7z"/>
<path d="M2410 558 c0 -6 3 -8 7 -5 3 4 13 1 22 -6 14 -11 14 -10 2 6 -15 20
-31 22 -31 5z"/>
</g>
</svg>
